<svg width="50" height="50" fill="none" xmlns="http://www.w3.org/2000/svg"><path d="M21.195 25.009a47.804 47.804 0 0 1-3.643 18.348 2.187 2.187 0 0 1-2.841 1.154 2.186 2.186 0 0 1-1.194-2.83 43.465 43.465 0 0 0 3.31-16.641v-.047a43.451 43.451 0 0 0-3.31-16.657 2.192 2.192 0 0 1 1.221-2.77 2.18 2.18 0 0 1 2.814 1.104 47.803 47.803 0 0 1 3.643 18.339Zm19.154 0a34.166 34.166 0 0 0-.374-5.279 2.19 2.19 0 0 0-1.695-1.816 2.176 2.176 0 0 0-.873-.01 2.257 2.257 0 0 0-1.745 2.519c.224 1.518.33 3.051.315 4.586v.047a29.538 29.538 0 0 1-.315 4.585 2.227 2.227 0 0 0 1.745 2.52 2.178 2.178 0 0 0 2.568-1.827c.26-1.747.385-3.512.374-5.278v-.047Zm-9.323 0a50.867 50.867 0 0 0-1.395-11.893 2.19 2.19 0 0 0-1.78-1.716 2.18 2.18 0 0 0-2.24 1.045 2.19 2.19 0 0 0-.226 1.692 46.608 46.608 0 0 1 1.276 10.878 46.592 46.592 0 0 1-1.276 10.878 2.193 2.193 0 0 0 1.64 2.54 2.18 2.18 0 0 0 2.606-1.53c.931-3.889 1.4-7.875 1.399-11.876v-.047l-.004.029Zm-19.98 0c0-8.294-2.026-16.46-5.902-23.788A2.188 2.188 0 0 0 2.994.008a2.181 2.181 0 0 0-1.906 1.567 2.193 2.193 0 0 0 .196 1.693 46.472 46.472 0 0 1 0 43.493 2.191 2.191 0 0 0 1.717 3.23 2.179 2.179 0 0 0 2.143-1.18 50.866 50.866 0 0 0 5.902-23.771v-.047.016Zm36.079-2.448a2.485 2.485 0 0 0-2.302 1.538 2.499 2.499 0 0 0 .538 2.72 2.487 2.487 0 0 0 4.25-1.763 2.494 2.494 0 0 0-1.53-2.319 2.483 2.483 0 0 0-.956-.191v.015Z" fill="url(#a)"/><defs><linearGradient id="a" x1="25.322" y1="49.977" x2="25.322" y2=".056" gradientUnits="userSpaceOnUse"><stop stop-color="#8B85FF"/><stop offset="1" stop-color="#5A52FF"/></linearGradient></defs></svg>